# xmcd
#
# Track frame offsets: 
#        150
#        14229
#        26243
#        39465
#        45787
#        89720
#        99986
#        111953
#        124732
#        138177
#        146808
#
# Disc length: 2185 seconds
#
# Revision: 0
# Processed by: cddbd v1.5.2PL0 Copyright (c) Steve Scherf et al.
# Submitted via: ExactAudioCopy v0.95b4
#
DISCID=9808870b
DTITLE=Braca bez gaca - Krk u bulju
DYEAR=2005
DGENRE=National Folk
TTITLE0=Cura Fina Zozefina
TTITLE1=Gde Je Mindza
TTITLE2=Gde Je Raca
TTITLE3=Jebi, Jebi Milivoje
TTITLE4=Krk U Bulju
TTITLE5=Krtica
TTITLE6=Moja Rajka
TTITLE7=Obrijana Ala
TTITLE8=Seljak
TTITLE9=Srbin
TTITLE10=Travo Zelena
EXTD=
EXTT0=
EXTT1=
EXTT2=
EXTT3=
EXTT4=
EXTT5=
EXTT6=
EXTT7=
EXTT8=
EXTT9=
EXTT10=
PLAYORDER=
